HIERARCHY
ROOT Hips
{
  OFFSET -413.33 91.0374 1441.46
  CHANNELS 6 Xposition Yposition Zposition Zrotation Xrotation Yrotation
  JOINT Spine
  {
    OFFSET -7.86063e-05 8 0.000135667
    CHANNELS 6 Xposition Yposition Zposition Zrotation Xrotation Yrotation
    JOINT Spine1
    {
      OFFSET 0.00133588 8 0.00159478
      CHANNELS 6 Xposition Yposition Zposition Zrotation Xrotation Yrotation
      JOINT Spine2
      {
        OFFSET 8.74521e-05 8 0.000317099
        CHANNELS 6 Xposition Yposition Zposition Zrotation Xrotation Yrotation
        JOINT Spine3
        {
          OFFSET 0 8 0
          CHANNELS 6 Xposition Yposition Zposition Zrotation Xrotation Yrotation
          JOINT Neck
          {
            OFFSET 8.60056e-05 17 0
            CHANNELS 6 Xposition Yposition Zposition Zrotation Xrotation Yrotation
            JOINT Head
            {
              OFFSET 0.00222764 10.8 0.00607725
              CHANNELS 6 Xposition Yposition Zposition Zrotation Xrotation Yrotation
              End Site
              {
                OFFSET 0 20.25 0
              }
            }
          }
          JOINT LeftShoulder
          {
            OFFSET 5.00001 17 2.23257e-05
            CHANNELS 6 Xposition Yposition Zposition Zrotation Xrotation Yrotation
            JOINT LeftShoulder2
            {
              OFFSET 6.45 0 0
              CHANNELS 6 Xposition Yposition Zposition Zrotation Xrotation Yrotation
              JOINT LeftArm
              {
                OFFSET 6.45005 -1.5905e-05 2.59103e-05
                CHANNELS 6 Xposition Yposition Zposition Zrotation Xrotation Yrotation
                JOINT LeftForeArm
                {
                  OFFSET 0.00929524 -32.4198 -2.0142
                  CHANNELS 6 Xposition Yposition Zposition Zrotation Xrotation Yrotation
                  JOINT LeftHand
                  {
                    OFFSET -0.0041697 -25.6511 1.99618
                    CHANNELS 6 Xposition Yposition Zposition Zrotation Xrotation Yrotation
                    JOINT LeftHandThumb1
                    {
                      OFFSET -0.498478 -1.49902 2.64765
                      CHANNELS 6 Xposition Yposition Zposition Zrotation Xrotation Yrotation
                      JOINT LeftHandThumb2
                      {
                        OFFSET 0.00488345 -3.79953 3.69129
                        CHANNELS 6 Xposition Yposition Zposition Zrotation Xrotation Yrotation
                        JOINT LeftHandThumb3
                        {
                          OFFSET 0.000748926 -3.00211 2.69936
                          CHANNELS 6 Xposition Yposition Zposition Zrotation Xrotation Yrotation
                          End Site
                          {
                            OFFSET 0.00104586 -2.30242 1.79973
                          }
                        }
                      }
                    }
                    JOINT LeftHandIndex
                    {
                      OFFSET -0.00341286 -1.90327 1.60546
                      CHANNELS 6 Xposition Yposition Zposition Zrotation Xrotation Yrotation
                      JOINT LeftHandIndex1
                      {
                        OFFSET -0.0158852 -8.30612 1.92545
                        CHANNELS 6 Xposition Yposition Zposition Zrotation Xrotation Yrotation
                        JOINT LeftHandIndex2
                        {
                          OFFSET 0.000402595 -4.49992 -0.000490071
                          CHANNELS 6 Xposition Yposition Zposition Zrotation Xrotation Yrotation
                          JOINT LeftHandIndex3
                          {
                            OFFSET 0.00111018 -3.40491 0.00905067
                            CHANNELS 6 Xposition Yposition Zposition Zrotation Xrotation Yrotation
                            End Site
                            {
                              OFFSET -0.000286469 -2.60006 5.96657e-05
                            }
                          }
                        }
                      }
                    }
                    JOINT LeftHandMiddle
                    {
                      OFFSET -0.242143 -2.19742 0.386996
                      CHANNELS 6 Xposition Yposition Zposition Zrotation Xrotation Yrotation
                      JOINT LeftHandMiddle1
                      {
                        OFFSET -0.00530614 -8.30739 1.00801
                        CHANNELS 6 Xposition Yposition Zposition Zrotation Xrotation Yrotation
                        JOINT LeftHandMiddle2
                        {
                          OFFSET 0.000335428 -4.64973 -0.00124063
                          CHANNELS 6 Xposition Yposition Zposition Zrotation Xrotation Yrotation
                          JOINT LeftHandMiddle3
                          {
                            OFFSET -0.000646664 -3.30044 -0.00044308
                            CHANNELS 6 Xposition Yposition Zposition Zrotation Xrotation Yrotation
                            End Site
                            {
                              OFFSET 0.00164082 -2.69785 9.69444e-05
                            }
                          }
                        }
                      }
                    }
                    JOINT LeftHandRing
                    {
                      OFFSET -0.498057 -2.14049 -0.80228
                      CHANNELS 6 Xposition Yposition Zposition Zrotation Xrotation Yrotation
                      JOINT LeftHandRing1
                      {
                        OFFSET 0.00356635 -7.75281 -0.206454
                        CHANNELS 6 Xposition Yposition Zposition Zrotation Xrotation Yrotation
                        JOINT LeftHandRing2
                        {
                          OFFSET -0.0015322 -3.79985 0.00273702
                          CHANNELS 6 Xposition Yposition Zposition Zrotation Xrotation Yrotation
                          JOINT LeftHandRing3
                          {
                            OFFSET 0.000496526 -3.40043 0.000463192
                            CHANNELS 6 Xposition Yposition Zposition Zrotation Xrotation Yrotation
                            End Site
                            {
                              OFFSET 0.000148145 -2.59937 0.000546384
                            }
                          }
                        }
                      }
                    }
                    JOINT LeftHandPinky
                    {
                      OFFSET -0.750035 -1.75003 -1.84982
                      CHANNELS 6 Xposition Yposition Zposition Zrotation Xrotation Yrotation
                      JOINT LeftHandPinky1
                      {
                        OFFSET -5.99623e-05 -7.15117 -1.00019
                        CHANNELS 6 Xposition Yposition Zposition Zrotation Xrotation Yrotation
                        JOINT LeftHandPinky2
                        {
                          OFFSET -0.000495054 -3.00063 5.39661e-05
                          CHANNELS 6 Xposition Yposition Zposition Zrotation Xrotation Yrotation
                          JOINT LeftHandPinky3
                          {
                            OFFSET -0.000532058 -2.34942 -0.00458421
                            CHANNELS 6 Xposition Yposition Zposition Zrotation Xrotation Yrotation
                            End Site
                            {
                              OFFSET -0.000205401 -2.09999 -0.000237267
                            }
                          }
                        }
                      }
                    }
                  }
                }
              }
            }
          }
          JOINT RightShoulder
          {
            OFFSET -4.99995 17 3.69214e-05
            CHANNELS 6 Xposition Yposition Zposition Zrotation Xrotation Yrotation
            JOINT RightShoulder2
            {
              OFFSET -6.45 0 0
              CHANNELS 6 Xposition Yposition Zposition Zrotation Xrotation Yrotation
              JOINT RightArm
              {
                OFFSET -6.45003 -2.23254e-05 0
                CHANNELS 6 Xposition Yposition Zposition Zrotation Xrotation Yrotation
                JOINT RightForeArm
                {
                  OFFSET 0.000471933 -32.3971 -1.99879
                  CHANNELS 6 Xposition Yposition Zposition Zrotation Xrotation Yrotation
                  JOINT RightHand
                  {
                    OFFSET -0.00163807 -25.6529 1.99993
                    CHANNELS 6 Xposition Yposition Zposition Zrotation Xrotation Yrotation
                    JOINT RightHandThumb1
                    {
                      OFFSET 0.500029 -1.49969 2.65009
                      CHANNELS 6 Xposition Yposition Zposition Zrotation Xrotation Yrotation
                      JOINT RightHandThumb2
                      {
                        OFFSET -0.00172284 -3.8018 3.7071
                        CHANNELS 6 Xposition Yposition Zposition Zrotation Xrotation Yrotation
                        JOINT RightHandThumb3
                        {
                          OFFSET 0.00194599 -2.99976 2.69725
                          CHANNELS 6 Xposition Yposition Zposition Zrotation Xrotation Yrotation
                          End Site
                          {
                            OFFSET -0.000658934 -2.29959 1.7995
                          }
                        }
                      }
                    }
                    JOINT RightHandIndex
                    {
                      OFFSET 0.000177348 -1.8985 1.60014
                      CHANNELS 6 Xposition Yposition Zposition Zrotation Xrotation Yrotation
                      JOINT RightHandIndex1
                      {
                        OFFSET -0.00223979 -8.3038 1.90163
                        CHANNELS 6 Xposition Yposition Zposition Zrotation Xrotation Yrotation
                        JOINT RightHandIndex2
                        {
                          OFFSET -6.24196e-05 -4.49975 4.84795e-05
                          CHANNELS 6 Xposition Yposition Zposition Zrotation Xrotation Yrotation
                          JOINT RightHandIndex3
                          {
                            OFFSET 0.00176594 -3.40391 0.00331398
                            CHANNELS 6 Xposition Yposition Zposition Zrotation Xrotation Yrotation
                            End Site
                            {
                              OFFSET -2.88915e-05 -2.59942 0.000311658
                            }
                          }
                        }
                      }
                    }
                    JOINT RightHandMiddle
                    {
                      OFFSET 0.25396 -2.19011 0.398084
                      CHANNELS 6 Xposition Yposition Zposition Zrotation Xrotation Yrotation
                      JOINT RightHandMiddle1
                      {
                        OFFSET 0.00118696 -8.29217 1.00066
                        CHANNELS 6 Xposition Yposition Zposition Zrotation Xrotation Yrotation
                        JOINT RightHandMiddle2
                        {
                          OFFSET 0.00545701 -4.64741 -0.00172405
                          CHANNELS 6 Xposition Yposition Zposition Zrotation Xrotation Yrotation
                          JOINT RightHandMiddle3
                          {
                            OFFSET -0.00068109 -3.30084 0.00198195
                            CHANNELS 6 Xposition Yposition Zposition Zrotation Xrotation Yrotation
                            End Site
                            {
                              OFFSET -0.0143776 -2.69196 0.0130071
                            }
                          }
                        }
                      }
                    }
                    JOINT RightHandRing
                    {
                      OFFSET 0.498582 -2.14597 -0.797277
                      CHANNELS 6 Xposition Yposition Zposition Zrotation Xrotation Yrotation
                      JOINT RightHandRing1
                      {
                        OFFSET -0.000581953 -7.75184 -0.19979
                        CHANNELS 6 Xposition Yposition Zposition Zrotation Xrotation Yrotation
                        JOINT RightHandRing2
                        {
                          OFFSET -0.00132327 -3.79535 -0.00332789
                          CHANNELS 6 Xposition Yposition Zposition Zrotation Xrotation Yrotation
                          JOINT RightHandRing3
                          {
                            OFFSET -0.00096819 -3.40091 -0.00138477
                            CHANNELS 6 Xposition Yposition Zposition Zrotation Xrotation Yrotation
                            End Site
                            {
                              OFFSET -0.00150585 -2.59993 0.00235522
                            }
                          }
                        }
                      }
                    }
                    JOINT RightHandPinky
                    {
                      OFFSET 0.750422 -1.74748 -1.84985
                      CHANNELS 6 Xposition Yposition Zposition Zrotation Xrotation Yrotation
                      JOINT RightHandPinky1
                      {
                        OFFSET -0.00472436 -7.15841 -0.996316
                        CHANNELS 6 Xposition Yposition Zposition Zrotation Xrotation Yrotation
                        JOINT RightHandPinky2
                        {
                          OFFSET -0.0193859 -3.00264 0.00700413
                          CHANNELS 6 Xposition Yposition Zposition Zrotation Xrotation Yrotation
                          JOINT RightHandPinky3
                          {
                            OFFSET 0.00211684 -2.34867 -0.0017698
                            CHANNELS 6 Xposition Yposition Zposition Zrotation Xrotation Yrotation
                            End Site
                            {
                              OFFSET -0.0025709 -2.09887 0.00229862
                            }
                          }
                        }
                      }
                    }
                  }
                }
              }
            }
          }
        }
      }
    }
  }
  JOINT LeftUpLeg
  {
    OFFSET 7.99999 0 3.35634e-05
    CHANNELS 6 Xposition Yposition Zposition Zrotation Xrotation Yrotation
    JOINT LeftLeg
    {
      OFFSET -0.00395006 -44.9968 -1.00434
      CHANNELS 6 Xposition Yposition Zposition Zrotation Xrotation Yrotation
      JOINT LeftFoot
      {
        OFFSET 0.000883154 -41.0001 -1.99927
        CHANNELS 6 Xposition Yposition Zposition Zrotation Xrotation Yrotation
        JOINT LeftToeBase
        {
          OFFSET -0.000151842 -7.49994 12.5
          CHANNELS 6 Xposition Yposition Zposition Zrotation Xrotation Yrotation
          JOINT LeftFootToe
          {
            OFFSET 0 0 4
            CHANNELS 6 Xposition Yposition Zposition Zrotation Xrotation Yrotation
            End Site
            {
              OFFSET 0 0 0
            }
          }
        }
      }
    }
  }
  JOINT RightUpLeg
  {
    OFFSET -7.99999 0 -3.35634e-05
    CHANNELS 6 Xposition Yposition Zposition Zrotation Xrotation Yrotation
    JOINT RightLeg
    {
      OFFSET -0.00378011 -44.9973 -1.0015
      CHANNELS 6 Xposition Yposition Zposition Zrotation Xrotation Yrotation
      JOINT RightFoot
      {
        OFFSET 0.010369 -41.0305 -1.9953
        CHANNELS 6 Xposition Yposition Zposition Zrotation Xrotation Yrotation
        JOINT RightToeBase
        {
          OFFSET 0.00238122 -7.49972 12.5013
          CHANNELS 6 Xposition Yposition Zposition Zrotation Xrotation Yrotation
          JOINT RightFootToe
          {
            OFFSET 0 0 4
            CHANNELS 6 Xposition Yposition Zposition Zrotation Xrotation Yrotation
            End Site
            {
              OFFSET 0 0 0
            }
          }
        }
      }
    }
  }
}
MOTION
Frames:	3
Frame Time:	0.0111111
-444.91 92.6752 1437.59 -2.34156 -1.66027 -155.556 1.13687e-13 8 0 -9.03441 6.61297 15.833 2.27374e-13 8 -2.27374e-13 -0.174622 0.64994 6.85494 -2.27374e-13 8 2.27374e-13 -0.0777109 0.32787 3.4305 -2.27374e-13 8 1.13687e-13 -0.0777984 0.328013 3.42415 0 17 0 -1.39657 2.48158 14.3154 0 10.8 -5.68434e-14 -0.967028 -3.49839 33.6411 5 17 0 -6.76353 4.59399 -3.1413 6.45 5.68434e-14 0 -0.344747 -0.0315356 -0.392095 6.45 -8.52651e-14 0 28.7272 -22.5672 46.9345 2.27374e-13 -32.4 -2 -74.5472 -60.8309 -40.0662 -2.27374e-13 -25.65 2 15.6615 12.3502 25.7851 -0.5 -1.5 2.65 -21.5811 -13.9108 -0.243252 -1.13687e-13 -3.8 3.7 7.92863 16.3891 3.91488 1.13687e-13 -3 2.7 0.0528116 46.9541 -0.0477975 2.27374e-13 -1.9 1.6 4.58058e-06 2.75056e-06 -7.59395e-07 0 -8.3 1.9 -1.65095 -7.49049 -0.147539 2.27374e-13 -4.5 0 -0.0712 -0.130419 -0.041602 1.13687e-13 -3.4 0 -0.000112895 -0.131989 -0.0402489 -0.25 -2.2 0.4 4.58058e-06 2.75056e-06 -7.59395e-07 2.27374e-13 -8.3 1 -2.96359 -3.27235 -0.0556665 0 -4.65 2.27374e-13 -37.3088 0.00933598 -0.00904316 1.13687e-13 -3.3 2.27374e-13 3.89655 -0.00431904 -0.0254097 -0.5 -2.15 -0.8 4.58058e-06 2.75056e-06 -7.59395e-07 -1.13687e-13 -7.75 -0.2 -5.54214 5.09047 0.426328 0 -3.8 0 -0.287486 0.00760288 -0.0266929 1.13687e-13 -3.4 0 -26.0202 0.000732282 -0.00360879 -0.75 -1.75 -1.85 4.58058e-06 2.75056e-06 -7.59395e-07 -2.27374e-13 -7.15 -1 -7.04191 9.45505 0.841604 -2.27374e-13 -3 0 -16.9028 -0.000552515 0.043999 0 -2.35 0 -13.7102 -0.00833382 0.0257921 -5 17 -5.68434e-14 2.7901 7.47972 4.59768 -6.45 -5.68434e-14 -1.7053e-13 -1.14696 0.0729445 -3.4855 -6.45 0 0 -81.585 15.8315 11.8905 -5.68434e-14 -32.4 -2 55.3043 -47.9631 40.4497 0 -25.65 2 17.6463 3.69738 15.7626 0.5 -1.5 2.65 -20.3282 40.7704 -157.489 1.13687e-13 -3.8 3.7 -19.4251 40.1461 0.661991 0 -3 2.7 -0.0133691 40.7864 0.0327508 2.27374e-13 -1.9 1.6 -4.16921e-06 9.37856e-06 -3.10275e-08 0 -8.3 1.9 32.9636 12.4195 -4.09553 -2.27374e-13 -4.5 -1.13687e-13 30.0195 7.1902 0.0998091 4.54747e-13 -3.4 -2.27374e-13 23.0215 -0.00275466 -0.00899292 0.25 -2.2 0.4 -4.16921e-06 9.37856e-06 -3.10275e-08 -2.27374e-13 -8.3 1 48.8667 7.96395 -5.66288 2.27374e-13 -4.65 0 42.6609 25.0365 2.42596 0 -3.3 0 36.9984 0.00624043 -0.0212826 0.5 -2.15 -0.8 -4.16921e-06 9.37856e-06 -3.10275e-08 2.27374e-13 -7.75 -0.2 58.2355 2.82562 -5.62302 0 -3.8 0 23.3678 35.6431 12.6962 5.68434e-14 -3.4 -2.27374e-13 43.3844 0.0014942 0.00383705 0.75 -1.75 -1.85 -4.16921e-06 9.37856e-06 -3.10275e-08 0 -7.15 -1 80.1168 2.57309 -11.5533 0 -3 0 19.9311 13.3109 0.971427 0 -2.35 1.13687e-13 20.9845 -0.00291603 0.00225272 8 -2.13163e-14 0 18.3528 -12.9069 21.4977 -2.27374e-13 -45 -1 -30.2491 26.1702 13.5639 0 -41 -2 13.8295 -10.5419 -22.1502 -2.27374e-13 -7.5 12.5 -0.000140898 -0.0305022 0.0149654 -2.27374e-13 -7.10543e-15 4 -3.01221 -5.88707 38.9956 -8 -1.42109e-14 0 -2.9181 -13.4838 -43.6679 5.68434e-14 -45 -1 -36.9582 -6.98547 12.3526 -5.68434e-14 -41 -2 35.1946 10.9346 -14.0079 1.13687e-13 -7.5 12.5 0.00011699 0.0245327 -0.000232177 -5.68434e-14 -1.42109e-14 4 -1.18955 -5.5357 114.047 
-444.862 92.6638 1437.57 -2.41678 -1.71259 -155.458 0 8 0 -9.16019 6.67471 15.8366 2.27374e-13 8 -1.13687e-13 -0.192772 0.687903 6.86363 0 8 1.13687e-13 -0.0862122 0.347146 3.43477 2.27374e-13 8 1.13687e-13 -0.0858256 0.346246 3.42811 0 17 0 -1.34412 2.3651 14.2815 2.27374e-13 10.8 -5.68434e-14 -0.889887 -3.56059 33.5706 5 17 0 -6.85094 4.49995 -3.15424 6.45 -5.68434e-14 0 -0.338108 -0.0385962 -0.357617 6.45 -2.84217e-14 -2.27374e-13 28.5453 -22.0148 46.6266 0 -32.4 -2 -75.8592 -61.0202 -41.5024 0 -25.65 2 16.5312 11.6962 25.9057 -0.5 -1.5 2.65 -21.6291 -13.6488 -0.437521 0 -3.8 3.7 8.18248 16.8501 3.93879 0 -3 2.7 0.0524342 46.6435 -0.0475223 2.27374e-13 -1.9 1.6 4.58058e-06 2.75056e-06 -7.59395e-07 0 -8.3 1.9 -1.61275 -7.29524 -0.144488 3.41061e-13 -4.5 0 -0.0712 -0.130419 -0.041602 0 -3.4 0 -0.000112895 -0.131989 -0.0402489 -0.25 -2.2 0.4 4.58058e-06 2.75056e-06 -7.59395e-07 2.27374e-13 -8.3 1 -3.32606 -3.27288 -0.0612754 0 -4.65 -2.27374e-13 -37.4246 0.00641991 -0.00508935 0 -3.3 4.54747e-13 -0.619906 -0.0104078 -0.0032727 -0.5 -2.15 -0.8 4.58058e-06 2.75056e-06 -7.59395e-07 -2.27374e-13 -7.75 -0.2 -6.69775 4.6298 0.464287 0 -3.8 0 -0.287486 0.00760288 -0.024435 -1.13687e-13 -3.4 -2.27374e-13 -26.5702 0.00476526 -0.00369036 -0.75 -1.75 -1.85 4.58058e-06 2.75056e-06 -7.59395e-07 -1.13687e-13 -7.15 -1 -8.62952 8.74664 0.937357 -1.13687e-13 -3 0 -15.8394 -0.000552515 0.0376881 0 -2.35 2.27374e-13 -12.9778 -0.00833382 0.0221062 -5 17 0 2.67327 7.33383 4.52816 -6.45 -2.84217e-14 -1.13687e-13 -1.14728 0.0800865 -3.47697 -6.45 0 -5.68434e-14 -81.3955 15.5707 11.949 -1.7053e-13 -32.4 -2 57.1392 -48.2765 42.0471 0 -25.65 2 17.1886 3.74927 15.2913 0.5 -1.5 2.65 -20.387 41.6383 -157.559 0 -3.8 3.7 -19.4251 40.1461 0.661991 2.27374e-13 -3 2.7 -0.0113701 40.7864 0.0296908 0 -1.9 1.6 -4.16921e-06 9.37856e-06 -3.10275e-08 2.27374e-13 -8.3 1.9 32.7897 12.3161 -4.04108 2.27374e-13 -4.5 1.13687e-13 29.9401 7.16773 0.0992436 4.54747e-13 -3.4 -1.13687e-13 22.9714 -0.00397603 -0.00899292 0.25 -2.2 0.4 -4.16921e-06 9.37856e-06 -3.10275e-08 0 -8.3 1 48.423 8.00901 -5.62219 -2.27374e-13 -4.65 -1.13687e-13 42.9959 25.4624 2.51666 0 -3.3 2.27374e-13 37.401 0.00627901 -0.0212826 0.5 -2.15 -0.8 -4.16921e-06 9.37856e-06 -3.10275e-08 2.27374e-13 -7.75 -0.2 57.9491 2.99785 -5.67923 2.27374e-13 -3.8 0 23.3259 35.8332 12.8775 5.68434e-14 -3.4 -4.54747e-13 43.6237 0.00113585 0.000856843 0.75 -1.75 -1.85 -4.16921e-06 9.37856e-06 -3.10275e-08 -2.27374e-13 -7.15 -1 79.8666 2.62491 -11.4949 0 -3 0 19.9629 13.3353 0.973129 0 -2.35 0 21.0129 -0.00291603 0.00225272 8 0 -2.27374e-13 18.2782 -12.9475 21.4487 -2.27374e-13 -45 -1 -30.2309 26.1594 13.5559 0 -41 -2 13.7927 -10.5103 -22.1926 0 -7.5 12.5 -0.000140898 -0.0305022 0.0149654 0 0 4 -2.98721 -5.88822 38.6454 -8 -2.84217e-14 -2.27374e-13 -2.96153 -13.5317 -43.5717 0 -45 -1 -37.0766 -6.84354 12.3163 5.68434e-14 -41 -2 35.0962 10.8344 -13.8408 -5.68434e-14 -7.5 12.5 0.00011699 0.0245327 -0.000232177 0 7.10543e-15 4 -1.29132 -5.50865 114.042 
-444.812 92.6505 1437.54 -2.50215 -1.77479 -155.319 0 8 4.54747e-13 -9.3026 6.73219 15.8373 0 8 0 -0.209606 0.716638 6.8695 0 8 1.13687e-13 -0.0941959 0.361782 3.43746 0 8 -1.13687e-13 -0.0936755 0.360931 3.43045 0 17 0 -1.28594 2.26198 14.2393 0 10.8 1.13687e-13 -0.789329 -3.60586 33.4813 5 17 5.68434e-14 -6.93521 4.42149 -3.1814 6.45 -2.84217e-14 0 -0.329935 -0.0461517 -0.321764 6.45 -8.52651e-14 0 28.3317 -21.4394 46.2534 0 -32.4 -2 -77.2416 -61.2076 -43.1059 -2.27374e-13 -25.65 2 17.3691 11.0682 25.9742 -0.5 -1.5 2.65 -21.6141 -13.4784 -0.593489 -1.13687e-13 -3.8 3.7 8.47687 17.3512 3.95067 1.13687e-13 -3 2.7 0.0521207 46.3828 -0.0472949 3.41061e-13 -1.9 1.6 4.58058e-06 2.75056e-06 -7.59395e-07 1.13687e-13 -8.3 1.9 -1.55988 -7.02905 -0.137901 1.13687e-13 -4.5 0 -0.0712 -0.130419 -0.041602 0 -3.4 2.27374e-13 -0.000112895 -0.131989 -0.0402489 -0.25 -2.2 0.4 4.58058e-06 2.75056e-06 -7.59395e-07 2.27374e-13 -8.3 1 -3.77917 -3.21202 -0.0644213 1.13687e-13 -4.65 0 -37.6451 0.00436648 -0.00132066 0 -3.3 2.27374e-13 -9.7653 -0.00911219 0.0512535 -0.5 -2.15 -0.8 4.58058e-06 2.75056e-06 -7.59395e-07 -2.27374e-13 -7.75 -0.2 -8.1385 4.20242 0.513333 0 -3.8 -2.27374e-13 -0.287486 0.00760288 -0.0221665 -1.13687e-13 -3.4 -4.54747e-13 -27.6308 0.0173492 -0.00785551 -0.75 -1.75 -1.85 4.58058e-06 2.75056e-06 -7.59395e-07 -2.27374e-13 -7.15 -1 -10.6176 8.06428 1.05379 0 -3 0 -14.6393 -0.000552515 0.0282825 0 -2.35 0 -12.1314 -0.00833382 0.0163118 -5 17 0 2.56335 7.2002 4.45972 -6.45 -8.52651e-14 -1.7053e-13 -1.14626 0.0876223 -3.46553 -6.45 -2.84217e-14 -5.68434e-14 -81.154 15.3165 11.9862 -5.68434e-14 -32.4 -2 59.0035 -48.5997 43.6734 2.27374e-13 -25.65 2 16.7192 3.78666 14.8105 0.5 -1.5 2.65 -20.3952 42.5359 -157.64 0 -3.8 3.7 -19.4251 40.1461 0.661991 2.27374e-13 -3 2.7 -0.00930433 40.7864 0.0265284 0 -1.9 1.6 -4.16921e-06 9.37856e-06 -3.10275e-08 2.27374e-13 -8.3 1.9 32.5853 12.1969 -3.98001 2.27374e-13 -4.5 0 29.6467 7.08304 0.0970138 5.68434e-13 -3.4 -1.13687e-13 22.7856 -0.0070768 -0.00899292 0.25 -2.2 0.4 -4.16921e-06 9.37856e-06 -3.10275e-08 0 -8.3 1 47.9657 8.07147 -5.58963 2.27374e-13 -4.65 0 43.28 25.8347 2.59788 5.68434e-14 -3.3 0 37.7508 0.00680093 -0.0212826 0.5 -2.15 -0.8 -4.16921e-06 9.37856e-06 -3.10275e-08 0 -7.75 -0.2 57.6434 3.20978 -5.75526 1.13687e-13 -3.8 1.13687e-13 23.2823 36.026 13.0619 1.13687e-13 -3.4 0 43.868 2.33564e-05 -0.00367023 0.75 -1.75 -1.85 -4.16921e-06 9.37856e-06 -3.10275e-08 0 -7.15 -1 79.5852 2.70235 -11.4498 0 -3 0 20.0077 13.3694 0.973163 0 -2.35 0 21.0523 -0.00291603 0.00225272 8 0 2.27374e-13 18.1944 -12.9854 21.4187 2.27374e-13 -45 -1 -30.2118 26.1481 13.5484 0 -41 -2 13.7556 -10.4763 -22.2277 -4.54747e-13 -7.5 12.5 -0.000140898 -0.0305022 0.0149654 0 0 4 -2.95668 -5.89148 38.3072 -8 -7.10543e-15 0 -3.01086 -13.5894 -43.4291 0 -45 -1 -37.2392 -6.64668 12.2657 5.68434e-14 -41 -2 35.0099 10.6897 -13.6853 0 -7.5 12.5 0.00011699 0.0245327 -0.000232177 5.68434e-14 -7.10543e-15 4 -1.41717 -5.49674 114.069 
